<?xml version="1.0" standalone="no"?>
<!DOCTYPE svg PUBLIC "-//W3C//DTD SVG 20010904//EN"
 "http://www.w3.org/TR/2001/REC-SVG-20010904/DTD/svg10.dtd">
<svg version="1.0" xmlns="http://www.w3.org/2000/svg"
 width="808.000000pt" height="239.000000pt" viewBox="0 0 808.000000 239.000000"
 preserveAspectRatio="xMidYMid meet">

<g transform="translate(0.000000,239.000000) scale(0.100000,-0.100000)"
fill="#000000" stroke="none">
<path d="M4847 2022 c-9 -9 -26 -43 -38 -74 -19 -50 -26 -59 -58 -69 -20 -6
-53 -20 -73 -30 -37 -19 -37 -19 -94 6 -89 39 -96 37 -201 -68 -105 -105 -107
-112 -68 -201 25 -57 25 -57 6 -94 -10 -20 -24 -53 -30 -73 -10 -32 -19 -39
-69 -58 -93 -36 -92 -34 -92 -191 0 -157 -1 -155 92 -191 50 -19 59 -26 69
-58 6 -20 20 -53 30 -73 19 -37 19 -37 -6 -94 -39 -89 -37 -96 68 -201 105
-105 112 -107 201 -68 57 25 57 25 94 6 20 -10 53 -24 73 -30 32 -10 39 -19
58 -69 36 -93 34 -92 191 -92 157 0 155 -1 191 92 19 50 26 59 58 69 20 6 53
20 73 30 37 19 37 19 94 -6 89 -39 96 -37 201 68 105 105 107 112 68 201 -25
57 -25 57 -6 94 10 20 24 53 30 73 10 32 19 39 69 58 93 36 92 34 92 191 0
157 1 155 -92 191 -50 19 -59 26 -69 58 -6 20 -20 53 -30 73 -19 37 -19 37 6
94 39 89 37 96 -68 201 -105 105 -112 107 -201 68 -57 -25 -57 -25 -94 -6 -20
10 -53 24 -73 30 -32 10 -39 19 -58 69 -36 93 -34 92 -191 92 -118 0 -139 -2
-153 -18z m244 -120 c28 -81 42 -96 114 -122 39 -15 84 -34 102 -43 42 -22 60
-21 122 5 l52 21 56 -56 56 -56 -21 -52 c-26 -62 -27 -80 -5 -122 9 -18 28
-63 43 -102 26 -72 41 -86 122 -114 28 -10 28 -11 28 -91 0 -80 0 -81 -28 -91
-81 -28 -96 -42 -122 -114 -15 -38 -34 -84 -43 -102 -22 -42 -21 -60 5 -122
l21 -52 -56 -56 -56 -56 -52 21 c-62 26 -80 27 -122 5 -18 -9 -63 -28 -102
-43 -72 -26 -86 -41 -114 -122 -10 -28 -11 -28 -91 -28 -80 0 -81 0 -91 28
-28 81 -42 96 -114 122 -38 15 -84 34 -102 43 -42 22 -60 21 -122 -5 l-52 -21
-56 56 -56 56 21 52 c26 62 27 80 5 122 -9 18 -28 64 -43 102 -26 72 -41 86
-122 114 -28 10 -28 11 -28 91 0 80 0 81 28 91 81 28 96 42 122 114 15 39 34
84 43 102 22 42 21 60 -5 122 l-21 52 56 56 56 56 52 -21 c62 -26 80 -27 122
-5 18 9 64 28 102 43 72 26 86 41 114 122 10 28 11 28 91 28 80 0 81 0 91 -28z"/>
<path d="M4875 1587 c-119 -40 -216 -124 -268 -234 -30 -64 -32 -74 -32 -183
0 -109 2 -119 32 -183 42 -89 121 -168 210 -210 64 -30 74 -32 183 -32 109 0
119 2 183 32 89 42 168 121 210 210 30 64 32 74 32 183 0 109 -2 119 -32 183
-42 89 -121 168 -210 210 -60 28 -80 32 -168 34 -63 2 -115 -2 -140 -10z m239
-113 c140 -50 233 -210 206 -356 -42 -220 -267 -334 -467 -237 -121 59 -198
209 -173 341 39 206 237 321 434 252z"/>
<path d="M1545 1992 c-51 -24 -101 -76 -116 -120 -6 -19 -9 -61 -7 -93 13
-185 241 -257 365 -115 84 95 62 240 -46 312 -54 35 -140 42 -196 16z m182
-94 c44 -44 56 -114 29 -166 -45 -88 -169 -102 -234 -28 -41 47 -48 94 -23
151 27 62 70 87 139 82 45 -3 59 -9 89 -39z"/>
<path d="M2533 1982 c-39 -6 -63 -48 -63 -108 l0 -54 -33 0 c-44 0 -97 -53
-97 -97 0 -30 -1 -31 -60 -35 -75 -5 -102 -28 -102 -83 0 -55 27 -78 102 -83
55 -4 60 -6 60 -28 0 -22 -4 -24 -53 -24 -88 0 -131 -48 -103 -115 16 -37 30
-43 106 -47 41 -3 45 -6 48 -30 3 -28 3 -28 -56 -28 -49 0 -62 -4 -82 -25 -30
-32 -30 -78 0 -110 20 -21 33 -25 82 -25 59 0 59 0 56 -27 -3 -25 -7 -28 -48
-31 -76 -4 -90 -10 -106 -47 -28 -67 15 -115 103 -115 49 0 53 -2 53 -24 0
-22 -5 -24 -60 -28 -75 -5 -102 -28 -102 -83 0 -55 27 -78 102 -83 60 -4 60
-4 60 -36 0 -44 53 -96 98 -96 l32 0 0 -54 c0 -77 33 -112 101 -107 37 3 54
28 59 93 5 60 6 63 33 66 27 3 27 3 27 -56 0 -49 4 -62 25 -82 34 -32 83 -30
113 5 17 20 22 39 22 81 0 51 1 54 25 54 22 0 25 -4 25 -39 0 -60 19 -101 53
-116 66 -27 117 23 117 115 0 36 2 40 25 40 24 0 25 -3 25 -54 0 -42 5 -61 23
-81 29 -35 78 -37 112 -5 21 20 25 33 25 82 0 59 0 59 28 56 26 -3 27 -6 32
-66 5 -65 22 -90 59 -93 68 -5 101 30 101 107 l0 54 33 0 c44 0 97 53 97 97 0
30 1 31 60 35 75 5 102 28 102 83 0 55 -27 78 -102 83 -55 4 -60 6 -60 28 0
22 4 24 53 24 88 0 131 48 103 115 -16 37 -30 43 -106 47 -41 3 -45 6 -48 31
-3 27 -3 27 56 27 49 0 62 4 82 25 14 15 23 37 23 55 0 18 -9 40 -23 55 -20
21 -33 25 -82 25 -59 0 -59 0 -56 28 3 24 7 27 48 30 76 4 90 10 106 47 28 67
-15 115 -103 115 -49 0 -53 2 -53 24 0 22 5 24 60 28 75 5 102 28 102 83 0 55
-27 78 -102 83 -60 4 -60 4 -60 36 0 44 -53 96 -98 96 l-32 0 0 54 c0 77 -33
112 -101 107 -37 -3 -54 -28 -59 -93 -5 -60 -6 -63 -32 -66 -28 -3 -28 -3 -28
56 0 49 -4 62 -25 82 -34 32 -83 30 -112 -5 -18 -20 -23 -39 -23 -81 0 -51 -1
-54 -25 -54 -22 0 -25 4 -25 39 0 60 -19 101 -53 116 -65 27 -117 -21 -117
-110 0 -41 -2 -45 -25 -45 -24 0 -25 3 -25 54 0 42 -5 61 -22 81 -30 35 -79
37 -113 5 -21 -20 -25 -33 -25 -82 0 -59 0 -59 -27 -56 -26 3 -28 6 -33 63 -3
33 -8 65 -13 72 -10 15 -57 30 -84 25z m45 -110 c3 -50 2 -52 -22 -52 -24 0
-26 3 -26 48 0 53 6 64 30 60 11 -2 16 -18 18 -56z m218 34 c3 -13 4 -37 2
-52 -2 -23 -9 -30 -30 -32 -27 -3 -28 -2 -28 46 0 27 3 52 7 55 15 16 43 6 49
-17z m212 -34 c3 -50 2 -52 -22 -52 -24 0 -26 3 -26 48 0 53 6 64 30 60 11 -2
16 -18 18 -56z m220 0 c3 -53 3 -53 -25 -50 -22 2 -29 9 -31 32 -6 49 6 78 31
74 19 -3 22 -10 25 -56z m210 0 c3 -50 2 -52 -22 -52 -24 0 -26 3 -26 48 0 53
6 64 30 60 11 -2 16 -18 18 -56z m119 -124 l23 -21 0 -556 0 -555 -22 -23 -21
-23 -551 0 -550 0 -23 22 -23 21 0 556 0 555 22 23 21 23 551 0 550 0 23 -22z
m-1217 -143 c0 -23 -3 -25 -49 -25 -51 0 -67 10 -57 35 4 11 21 15 56 15 47 0
50 -2 50 -25z m1395 0 c0 -17 -8 -20 -52 -23 -51 -3 -53 -2 -53 23 0 25 2 26
53 23 44 -3 52 -6 52 -23z m-1395 -220 c0 -23 -3 -25 -49 -25 -51 0 -67 10
-57 35 4 11 21 15 56 15 47 0 50 -2 50 -25z m1395 0 c0 -17 -8 -20 -52 -23
-51 -3 -53 -2 -53 23 0 25 2 26 53 23 44 -3 52 -6 52 -23z m-1400 -215 c0 -20
-6 -26 -29 -28 -45 -5 -76 6 -76 27 0 24 15 30 65 28 35 -2 40 -5 40 -27z
m1389 24 c9 -3 16 -14 16 -24 0 -21 -19 -30 -66 -30 -36 0 -51 17 -40 45 6 15
60 21 90 9z m-1384 -239 c0 -23 -3 -25 -49 -25 -51 0 -67 10 -57 35 4 11 21
15 56 15 47 0 50 -2 50 -25z m1395 0 c0 -17 -8 -20 -52 -23 -51 -3 -53 -2 -53
23 0 25 2 26 53 23 44 -3 52 -6 52 -23z m-1395 -220 c0 -23 -3 -25 -49 -25
-51 0 -67 10 -57 35 4 11 21 15 56 15 47 0 50 -2 50 -25z m1395 0 c0 -17 -8
-20 -52 -23 -51 -3 -53 -2 -53 23 0 25 2 26 53 23 44 -3 52 -6 52 -23z m-1157
-267 c-3 -45 -6 -53 -23 -53 -17 0 -20 8 -23 53 -3 50 -2 52 23 52 25 0 26 -2
23 -52z m220 18 c6 -49 -6 -78 -31 -74 -19 3 -22 10 -25 56 -3 53 -3 53 25 50
22 -2 29 -9 31 -32z m210 -18 c-3 -45 -6 -53 -23 -53 -17 0 -20 8 -23 53 -3
50 -2 52 23 52 25 0 26 -2 23 -52z m220 0 c-2 -42 -7 -54 -22 -56 -24 -5 -36
14 -36 59 0 42 5 49 37 49 23 0 24 -3 21 -52z m210 0 c-3 -45 -6 -53 -23 -53
-17 0 -20 8 -23 53 -3 50 -2 52 23 52 25 0 26 -2 23 -52z"/>
<path d="M2446 1694 c-8 -20 -8 -1028 0 -1048 5 -14 62 -16 539 -16 477 0 534
2 539 16 8 20 8 1028 0 1048 -5 14 -62 16 -539 16 -477 0 -534 -2 -539 -16z
m1024 -524 l0 -490 -485 0 -485 0 0 490 0 490 485 0 485 0 0 -490z"/>
<path d="M2564 1579 c-17 -19 -17 -23 -3 -47 21 -39 74 -43 91 -8 27 61 -43
105 -88 55z"/>
<path d="M6970 1844 c-230 -29 -435 -107 -598 -226 -94 -68 -222 -197 -222
-223 0 -27 19 -51 47 -60 19 -5 37 7 100 67 141 134 262 210 427 267 229 81
495 80 726 -1 160 -57 280 -131 415 -259 70 -66 90 -79 108 -74 27 9 47 33 47
58 0 26 -118 147 -210 216 -138 103 -320 183 -492 216 -84 16 -284 27 -348 19z"/>
<path d="M521 1787 c-116 -41 -128 -205 -21 -266 40 -22 84 -27 123 -12 21 8
29 3 67 -41 l44 -51 -19 -31 c-52 -89 -59 -110 -60 -191 0 -44 3 -93 7 -110 6
-27 3 -34 -41 -70 -26 -22 -73 -62 -104 -89 l-57 -48 -30 26 c-79 66 -199 57
-272 -20 -63 -68 -74 -151 -30 -235 22 -43 38 -59 81 -81 70 -37 122 -37 192
0 43 22 59 38 82 82 25 48 28 63 24 115 l-5 60 74 63 c40 35 84 72 99 84 l25
20 60 -55 c72 -67 135 -92 236 -91 60 0 81 5 139 33 l67 33 75 -74 75 -75 -26
-52 c-36 -69 -42 -125 -22 -192 19 -66 62 -120 124 -157 40 -23 58 -27 122
-27 57 0 85 6 115 22 157 84 193 285 72 411 -72 75 -170 98 -272 64 l-60 -21
-77 76 -76 76 23 37 c61 97 69 222 20 328 l-25 55 35 38 c37 42 38 69 1 69
-12 0 -35 -13 -51 -30 l-28 -29 -42 29 c-99 68 -240 80 -345 28 l-55 -27 -42
47 c-31 34 -41 52 -37 67 16 51 15 104 -1 139 -30 63 -116 98 -184 73z m104
-82 c51 -50 18 -135 -52 -135 -42 0 -83 38 -83 75 0 35 50 85 85 85 14 0 37
-11 50 -25z m478 -278 c28 -11 64 -38 87 -64 146 -166 45 -428 -174 -450 -99
-10 -207 43 -260 130 -41 67 -48 170 -16 245 24 55 91 125 138 143 79 31 146
29 225 -4z m-732 -562 c90 -47 90 -193 0 -240 -91 -47 -201 17 -201 118 0 104
108 170 201 122z m1267 -106 c91 -44 130 -165 83 -257 -23 -46 -46 -67 -94
-87 -99 -41 -202 0 -248 100 -23 49 -24 94 -4 143 45 105 161 150 263 101z"/>
<path d="M1384 1586 c-10 -26 4 -48 28 -44 17 2 23 10 23 28 0 18 -6 26 -23
28 -13 2 -25 -3 -28 -12z"/>
<path d="M6905 1476 c-154 -36 -299 -113 -411 -220 -68 -65 -80 -98 -48 -130
30 -30 66 -20 119 35 172 175 439 253 684 198 125 -28 266 -107 356 -198 53
-55 89 -65 119 -35 33 32 20 65 -53 134 -88 83 -201 151 -321 191 -87 29 -108
33 -240 35 -98 3 -164 -1 -205 -10z"/>
<path d="M6973 1135 c-80 -17 -171 -66 -234 -125 -53 -50 -63 -84 -31 -113 30
-27 58 -20 114 29 28 26 77 59 107 73 49 22 69 26 156 26 87 0 107 -3 157 -27
32 -15 79 -47 106 -72 53 -50 88 -58 115 -28 30 33 21 63 -35 114 -87 82 -235
140 -352 137 -23 0 -69 -7 -103 -14z"/>
<path d="M7015 836 c-71 -31 -114 -114 -102 -192 12 -73 97 -144 172 -144 64
0 142 54 164 113 54 142 -95 284 -234 223z m113 -118 c20 -20 15 -76 -7 -88
-28 -14 -57 -12 -75 6 -19 18 -21 65 -4 82 16 16 70 16 86 0z"/>
</g>
</svg>
