<?xml version="1.0" standalone="no"?>
<!DOCTYPE svg PUBLIC "-//W3C//DTD SVG 20010904//EN"
 "http://www.w3.org/TR/2001/REC-SVG-20010904/DTD/svg10.dtd">
<svg version="1.0" xmlns="http://www.w3.org/2000/svg"
 width="704.000000pt" height="174.000000pt" viewBox="0 0 704.000000 174.000000"
 preserveAspectRatio="xMidYMid meet">

<g transform="translate(0.000000,174.000000) scale(0.100000,-0.100000)"
fill="#000000" stroke="none">
<path d="M4207 1614 c-4 -4 -7 -36 -7 -70 0 -61 -1 -64 -27 -70 -16 -4 -59
-20 -96 -37 l-68 -30 -42 41 c-24 23 -47 42 -53 42 -12 0 -194 -182 -194 -195
0 -5 19 -28 42 -52 l41 -42 -30 -68 c-17 -37 -33 -80 -37 -95 -6 -26 -10 -27
-74 -30 l-67 -3 0 -140 0 -140 67 -3 c64 -3 68 -4 74 -30 4 -15 20 -58 37 -95
l30 -68 -41 -42 c-23 -24 -42 -47 -42 -53 0 -12 182 -194 195 -194 5 0 28 19
52 42 l42 41 68 -30 c37 -17 80 -33 95 -37 26 -6 27 -10 30 -74 l3 -67 140 0
140 0 3 67 c3 64 4 68 30 74 15 4 58 20 95 37 l68 30 42 -41 c24 -23 47 -42
53 -42 12 0 194 182 194 195 0 5 -19 28 -42 52 l-41 42 30 68 c17 37 33 80 37
95 6 26 10 27 74 30 l67 3 0 140 0 140 -67 3 c-64 3 -68 4 -74 30 -4 15 -20
58 -37 95 l-30 68 41 42 c23 24 42 47 42 53 0 12 -182 194 -195 194 -5 0 -28
-19 -52 -42 l-42 -41 -68 30 c-37 17 -80 33 -95 37 -26 6 -27 10 -30 74 l-3
67 -136 3 c-74 1 -138 -1 -142 -4z m235 -106 l3 -62 75 -26 c41 -14 92 -35
113 -48 21 -12 44 -22 51 -22 6 0 30 18 51 40 l39 40 68 -67 68 -67 -40 -41
c-22 -22 -40 -46 -40 -52 0 -7 10 -29 22 -50 13 -21 34 -72 48 -113 l26 -75
62 -3 62 -3 0 -94 0 -94 -62 -3 -62 -3 -26 -75 c-14 -41 -35 -92 -48 -113 -12
-21 -22 -44 -22 -51 0 -6 18 -30 40 -51 l40 -39 -67 -68 -67 -68 -41 40 c-22
22 -46 40 -52 40 -7 0 -29 -10 -50 -22 -21 -13 -72 -34 -113 -48 l-75 -26 -3
-62 -3 -62 -94 0 -94 0 -3 62 -3 62 -75 26 c-41 14 -92 35 -113 48 -21 12 -44
22 -51 22 -6 0 -30 -18 -51 -40 l-39 -40 -68 67 -68 67 40 41 c22 22 40 46 40
52 0 7 -10 29 -22 50 -13 21 -34 72 -48 113 l-26 75 -62 3 -62 3 0 94 0 94 62
3 62 3 26 75 c14 41 35 92 48 113 12 21 22 43 22 50 0 6 -18 30 -40 52 l-40
41 68 67 68 67 39 -40 c21 -22 45 -40 51 -40 7 0 30 10 51 22 21 13 72 34 113
48 l75 26 3 62 3 62 94 0 94 0 3 -62z"/>
<path d="M4240 1109 c-211 -95 -214 -386 -5 -485 173 -82 374 48 375 241 0
189 -200 321 -370 244z m198 -48 c78 -40 122 -111 122 -196 0 -122 -93 -215
-215 -215 -122 0 -215 93 -215 215 0 85 45 156 125 198 43 23 137 22 183 -2z"/>
<path d="M1301 1573 c-78 -39 -118 -145 -87 -228 26 -67 106 -125 171 -125 62
0 138 53 166 115 36 78 13 168 -56 221 -48 36 -141 44 -194 17z m147 -57 c87
-48 78 -184 -15 -222 -48 -20 -94 -11 -132 26 -55 55 -53 129 5 180 27 23 44
30 77 30 23 -1 52 -6 65 -14z"/>
<path d="M2150 1550 c-15 -15 -20 -33 -20 -70 0 -49 -1 -50 -31 -50 -20 0 -40
-10 -60 -29 -19 -20 -29 -40 -29 -60 0 -30 -1 -31 -50 -31 -59 0 -90 -24 -90
-70 0 -46 31 -70 90 -70 47 0 50 -2 50 -25 0 -23 -3 -25 -50 -25 -59 0 -90
-24 -90 -70 0 -46 31 -70 90 -70 47 0 50 -2 50 -25 0 -23 -3 -25 -50 -25 -59
0 -90 -24 -90 -70 0 -46 31 -70 90 -70 47 0 50 -2 50 -25 0 -23 -3 -25 -50
-25 -59 0 -90 -24 -90 -70 0 -46 31 -70 90 -70 47 0 50 -2 50 -25 0 -23 -3
-25 -50 -25 -59 0 -90 -24 -90 -70 0 -46 31 -70 90 -70 49 0 50 -1 50 -31 0
-42 47 -89 89 -89 30 0 31 -1 31 -50 0 -59 24 -90 69 -90 42 0 71 40 71 96 0
40 2 44 25 44 24 0 25 -3 25 -54 0 -45 4 -58 22 -70 58 -41 118 0 118 80 0 36
3 44 19 44 15 0 19 -10 23 -50 6 -61 29 -90 73 -90 44 0 67 29 73 90 4 40 8
50 23 50 16 0 19 -8 19 -44 0 -80 60 -121 118 -80 18 12 22 25 22 70 0 51 1
54 25 54 23 0 25 -4 25 -44 0 -56 29 -96 71 -96 45 0 69 31 69 90 0 49 1 50
31 50 42 0 89 47 89 89 0 30 1 31 50 31 59 0 90 24 90 70 0 46 -31 70 -90 70
-47 0 -50 2 -50 25 0 23 3 25 50 25 59 0 90 24 90 70 0 46 -31 70 -90 70 -47
0 -50 2 -50 25 0 23 3 25 50 25 59 0 90 24 90 70 0 46 -31 70 -90 70 -47 0
-50 2 -50 25 0 23 3 25 50 25 59 0 90 24 90 70 0 46 -31 70 -90 70 -47 0 -50
2 -50 25 0 23 3 25 50 25 59 0 90 24 90 70 0 46 -31 70 -90 70 -49 0 -50 1
-50 31 0 42 -47 89 -89 89 -30 0 -31 1 -31 50 0 59 -24 90 -69 90 -42 0 -71
-40 -71 -96 0 -40 -2 -44 -25 -44 -24 0 -25 3 -25 54 0 45 -4 58 -22 70 -58
41 -118 0 -118 -80 0 -36 -3 -44 -19 -44 -15 0 -19 10 -23 50 -6 61 -29 90
-73 90 -44 0 -67 -29 -73 -90 -4 -40 -8 -50 -23 -50 -16 0 -19 8 -19 44 0 80
-60 121 -118 80 -18 -12 -22 -25 -22 -70 0 -51 -1 -54 -25 -54 -23 0 -25 4
-25 44 0 82 -70 126 -120 76z m70 -75 c0 -41 -2 -45 -25 -45 -22 0 -25 4 -25
38 0 43 5 52 32 52 15 0 18 -8 18 -45z m188 -3 c3 -39 1 -42 -22 -42 -23 0
-26 4 -26 38 0 43 7 54 30 50 10 -2 16 -17 18 -46z m190 0 c3 -39 1 -42 -22
-42 -23 0 -26 4 -26 38 0 43 7 54 30 50 10 -2 16 -17 18 -46z m190 0 c3 -39 1
-42 -22 -42 -23 0 -26 4 -26 38 0 43 7 54 30 50 10 -2 16 -17 18 -46z m190 1
c3 -40 1 -43 -22 -43 -24 0 -26 3 -26 46 0 41 2 45 23 42 18 -2 23 -10 25 -45z
m100 -105 c17 -17 17 -999 0 -1016 -17 -17 -989 -17 -1006 0 -17 17 -17 999 0
1016 17 17 989 17 1006 0z m-1068 -128 c0 -17 -7 -20 -45 -20 -38 0 -45 3 -45
20 0 17 7 20 45 20 38 0 45 -3 45 -20z m1220 0 c0 -17 -7 -20 -45 -20 -38 0
-45 3 -45 20 0 17 7 20 45 20 38 0 45 -3 45 -20z m-1220 -190 c0 -17 -7 -20
-45 -20 -38 0 -45 3 -45 20 0 17 7 20 45 20 38 0 45 -3 45 -20z m1220 0 c0
-17 -7 -20 -45 -20 -38 0 -45 3 -45 20 0 17 7 20 45 20 38 0 45 -3 45 -20z
m-1220 -190 c0 -17 -7 -20 -45 -20 -38 0 -45 3 -45 20 0 17 7 20 45 20 38 0
45 -3 45 -20z m1220 0 c0 -17 -7 -20 -45 -20 -38 0 -45 3 -45 20 0 17 7 20 45
20 38 0 45 -3 45 -20z m-1220 -190 c0 -17 -7 -20 -45 -20 -38 0 -45 3 -45 20
0 17 7 20 45 20 38 0 45 -3 45 -20z m1220 0 c0 -17 -7 -20 -45 -20 -38 0 -45
3 -45 20 0 17 7 20 45 20 38 0 45 -3 45 -20z m-1220 -190 c0 -17 -7 -20 -45
-20 -38 0 -45 3 -45 20 0 17 7 20 45 20 38 0 45 -3 45 -20z m1220 0 c0 -17 -7
-20 -45 -20 -38 0 -45 3 -45 20 0 17 7 20 45 20 38 0 45 -3 45 -20z m-1010
-236 c0 -41 -2 -45 -22 -42 -19 2 -24 10 -26 46 -3 39 -1 42 22 42 24 0 26 -3
26 -46z m188 4 c-2 -35 -7 -43 -23 -43 -16 0 -21 8 -23 43 -3 39 -2 42 23 42
25 0 26 -3 23 -42z m190 0 c-2 -35 -7 -43 -23 -43 -16 0 -21 8 -23 43 -3 39
-2 42 23 42 25 0 26 -3 23 -42z m190 0 c-2 -35 -7 -43 -23 -43 -16 0 -21 8
-23 43 -3 39 -2 42 23 42 25 0 26 -3 23 -42z m190 0 c-2 -36 -7 -44 -25 -46
-21 -3 -23 1 -23 42 0 43 2 46 26 46 23 0 25 -3 22 -42z"/>
<path d="M2118 1329 c-17 -9 -18 -42 -18 -469 0 -444 1 -460 19 -470 27 -14
885 -14 912 0 18 10 19 26 19 470 0 444 -1 460 -19 470 -27 14 -889 13 -913
-1z m882 -469 l0 -430 -425 0 -425 0 0 430 0 430 425 0 425 0 0 -430z"/>
<path d="M2212 1228 c-7 -7 -12 -21 -12 -33 0 -12 5 -26 12 -33 7 -7 21 -12
33 -12 12 0 26 5 33 12 7 7 12 21 12 33 0 12 -5 26 -12 33 -7 7 -21 12 -33 12
-12 0 -26 -5 -33 -12z"/>
<path d="M5967 1495 c-203 -39 -396 -133 -540 -265 -58 -53 -68 -73 -42 -84 9
-3 37 15 72 45 131 114 293 199 462 242 124 31 378 31 501 0 170 -43 308 -114
443 -227 74 -61 107 -74 107 -41 0 17 -98 106 -173 157 -89 61 -234 126 -344
155 -125 32 -363 41 -486 18z"/>
<path d="M411 1392 c-67 -36 -90 -121 -48 -183 32 -47 62 -61 124 -55 52 4 53
4 88 -39 l36 -43 -33 -53 c-32 -51 -33 -56 -33 -158 l0 -106 -84 -74 c-70 -62
-86 -73 -100 -63 -78 55 -154 62 -219 20 -45 -31 -82 -97 -82 -149 1 -50 33
-112 76 -145 32 -25 47 -29 99 -29 113 0 180 71 178 187 l-1 58 85 74 85 74
35 -39 c85 -94 227 -120 343 -62 l59 29 64 -65 64 -66 -24 -46 c-43 -82 -28
-195 35 -263 79 -84 231 -88 315 -8 99 94 91 266 -16 343 -71 52 -165 61 -236
25 -27 -15 -28 -14 -94 52 l-66 67 31 64 c41 81 44 168 8 249 l-23 53 27 28
c51 53 10 97 -43 47 l-27 -25 -44 29 c-86 57 -198 63 -289 16 l-44 -23 -39 43
c-38 41 -39 44 -27 77 16 45 5 99 -29 132 -48 48 -95 57 -151 27z m104 -67
c30 -29 32 -68 5 -95 -41 -41 -120 -12 -120 45 0 31 41 75 70 75 12 0 32 -11
45 -25z m421 -243 c145 -75 174 -262 59 -377 -113 -114 -292 -87 -369 54 -25
47 -28 60 -24 126 3 62 8 80 33 116 36 50 67 75 121 95 50 18 129 12 180 -14z
m-629 -497 c38 -25 57 -81 44 -126 -41 -135 -231 -107 -231 33 0 40 21 73 64
99 35 23 83 20 123 -6z m1076 -79 c18 -7 45 -28 60 -45 94 -112 23 -271 -122
-271 -146 0 -218 159 -124 271 47 56 120 73 186 45z"/>
<path d="M6005 1296 c-176 -34 -336 -115 -464 -235 -27 -26 -31 -34 -21 -46
18 -22 26 -19 73 23 322 292 832 292 1154 0 47 -42 55 -45 73 -23 10 13 5 22
-31 56 -105 96 -246 172 -390 210 -106 27 -293 34 -394 15z"/>
<path d="M1174 1225 c-8 -21 2 -45 19 -45 8 0 20 7 27 15 10 12 10 18 0 30 -7
8 -19 15 -27 15 -7 0 -16 -7 -19 -15z"/>
<path d="M6045 1096 c-83 -17 -130 -33 -211 -74 -72 -36 -174 -117 -174 -138
0 -32 31 -24 95 26 134 102 254 144 415 144 161 0 281 -42 415 -144 64 -50 95
-58 95 -25 0 42 -211 168 -335 200 -87 22 -217 27 -300 11z"/>
<path d="M6010 877 c-71 -24 -152 -72 -190 -112 -21 -22 -22 -27 -9 -40 13
-13 22 -9 74 30 84 63 151 87 261 93 134 6 236 -27 330 -110 32 -29 36 -30 51
-15 15 15 15 18 -3 38 -34 39 -136 99 -202 119 -91 28 -225 27 -312 -3z"/>
<path d="M6065 684 c-48 -17 -115 -69 -115 -90 0 -25 30 -28 53 -6 38 36 108
62 167 62 59 0 129 -26 167 -62 23 -22 53 -19 53 6 0 22 -68 73 -119 91 -55
19 -152 18 -206 -1z"/>
<path d="M6121 486 c-89 -49 -53 -186 49 -186 33 0 48 6 71 29 80 81 -20 212
-120 157z m84 -56 c27 -29 10 -74 -28 -78 -52 -6 -76 41 -40 80 21 24 45 23
68 -2z"/>
</g>
</svg>
