<?xml version="1.0" standalone="no"?>
<!DOCTYPE svg PUBLIC "-//W3C//DTD SVG 20010904//EN"
 "http://www.w3.org/TR/2001/REC-SVG-20010904/DTD/svg10.dtd">
<svg version="1.0" xmlns="http://www.w3.org/2000/svg"
 width="484.000000pt" height="134.000000pt" viewBox="0 0 484.000000 134.000000"
 preserveAspectRatio="xMidYMid meet">

<g transform="translate(0.000000,134.000000) scale(0.100000,-0.100000)"
fill="#000000" stroke="none">
<path d="M2890 1114 c0 -43 -2 -46 -37 -60 -21 -8 -51 -21 -67 -29 -28 -15
-30 -15 -63 17 l-33 32 -65 -64 c-36 -35 -65 -69 -65 -74 0 -6 12 -22 26 -37
l26 -27 -25 -64 -26 -63 -45 -3 -46 -3 0 -94 0 -94 46 -3 45 -3 26 -63 25 -64
-26 -27 c-14 -15 -26 -31 -26 -37 0 -5 29 -39 65 -74 l65 -65 31 32 31 31 52
-23 c28 -12 59 -25 69 -28 13 -5 17 -17 17 -52 l0 -45 95 0 95 0 0 45 c0 35 4
47 18 52 9 3 40 16 68 28 l52 23 31 -31 31 -32 65 65 c36 35 65 69 65 74 0 6
-12 22 -26 37 l-26 27 25 64 26 63 45 3 46 3 0 94 0 94 -46 3 -45 3 -26 63
-25 64 26 27 c14 15 26 31 26 37 0 5 -29 39 -65 74 l-65 64 -34 -33 c-28 -27
-37 -31 -52 -22 -11 6 -40 20 -66 31 -47 19 -48 20 -48 65 l0 45 -95 0 -95 0
0 -46z m162 -30 l3 -46 59 -19 c32 -9 63 -22 69 -28 18 -18 39 -13 69 16 l29
27 46 -47 47 -46 -28 -30 -29 -30 26 -58 c14 -32 29 -70 32 -85 7 -25 11 -28
51 -28 l44 0 0 -65 0 -65 -40 0 c-35 0 -42 -4 -51 -27 -6 -16 -23 -54 -37 -86
l-26 -57 29 -30 29 -31 -47 -46 -46 -47 -31 29 -30 29 -47 -22 c-27 -12 -65
-28 -85 -36 -35 -14 -38 -18 -38 -55 l0 -41 -65 0 -65 0 0 41 c0 37 -3 41 -37
55 -21 8 -59 24 -86 36 l-47 22 -30 -29 -31 -29 -46 47 -47 46 29 31 29 30
-26 57 c-14 32 -31 70 -37 86 -9 23 -16 27 -51 27 l-40 0 0 65 0 65 41 0 c37
0 41 3 55 38 8 20 24 58 36 85 l22 47 -29 30 -29 31 47 46 46 47 29 -27 c28
-27 56 -35 67 -18 3 5 29 17 58 27 69 22 77 30 77 75 l0 39 64 0 65 0 3 -46z"/>
<path d="M2941 820 c-135 -32 -182 -202 -82 -301 83 -83 211 -70 277 28 89
133 -38 311 -195 273z m121 -47 c67 -40 91 -135 52 -204 -25 -45 -102 -84
-147 -75 -183 35 -169 296 16 296 29 0 61 -7 79 -17z"/>
<path d="M954 1130 c-11 -4 -33 -23 -48 -41 -25 -29 -28 -39 -23 -82 12 -134
188 -159 236 -33 37 98 -66 196 -165 156z m97 -43 c44 -34 49 -83 13 -126 -51
-61 -144 -26 -144 54 0 66 81 111 131 72z"/>
<path d="M1641 1114 c-14 -11 -21 -26 -21 -50 0 -24 -5 -34 -15 -34 -9 0 -15
10 -15 26 0 41 -18 64 -48 64 -37 0 -52 -17 -52 -57 0 -25 -4 -33 -18 -33 -23
0 -62 -40 -62 -63 0 -12 -9 -17 -30 -17 -29 0 -70 -29 -70 -50 0 -21 41 -50
70 -50 20 0 30 -5 30 -15 0 -10 -11 -15 -35 -15 -26 0 -39 -6 -50 -24 -25 -38
-5 -66 45 -66 33 0 40 -3 40 -19 0 -15 -8 -20 -36 -23 -44 -4 -67 -32 -53 -65
7 -19 16 -23 49 -23 33 0 40 -3 40 -20 0 -16 -7 -20 -32 -20 -44 0 -60 -12
-60 -45 0 -33 16 -45 60 -45 25 0 32 -4 32 -20 0 -17 -7 -20 -40 -20 -50 0
-70 -28 -45 -66 11 -18 24 -24 50 -24 27 0 35 -4 35 -18 0 -23 40 -62 63 -62
13 0 17 -9 17 -34 0 -32 27 -66 52 -66 19 0 48 43 48 70 0 20 5 30 15 30 10 0
15 -10 15 -34 0 -32 27 -66 52 -66 19 0 48 43 48 70 0 20 5 30 15 30 10 0 15
-10 15 -34 0 -32 27 -66 52 -66 19 0 48 43 48 70 0 20 5 30 15 30 10 0 15 -11
15 -35 0 -26 6 -39 24 -50 36 -24 64 -5 72 45 8 51 34 55 34 5 0 -26 6 -39 24
-50 38 -25 66 -5 66 45 0 35 3 40 23 40 27 0 67 38 67 63 0 13 9 17 33 17 38
0 57 15 57 45 0 30 -19 45 -57 45 -26 0 -33 4 -33 20 0 16 7 20 33 20 38 0 57
15 57 45 0 30 -19 45 -57 45 -26 0 -33 4 -33 20 0 16 7 20 33 20 38 0 57 15
57 45 0 30 -19 45 -57 45 -26 0 -33 4 -33 20 0 16 7 20 33 20 39 0 57 15 57
47 0 25 -26 43 -64 43 -42 0 -31 27 13 34 39 6 51 20 51 56 0 23 -28 40 -64
40 -15 0 -26 6 -26 14 0 25 -41 66 -66 66 -21 0 -24 4 -24 40 0 33 -4 42 -22
49 -34 14 -62 -9 -66 -53 -4 -49 -26 -46 -38 6 -11 48 -40 65 -73 42 -14 -11
-21 -26 -21 -50 0 -48 -24 -44 -36 8 -11 48 -40 65 -73 42 -14 -11 -21 -26
-21 -50 0 -24 -5 -34 -15 -34 -10 0 -15 10 -15 28 0 52 -42 81 -79 56z m49
-60 c0 -17 -6 -24 -20 -24 -15 0 -20 7 -20 28 0 16 3 32 7 35 11 12 33 -14 33
-39z m130 0 c0 -17 -6 -24 -20 -24 -15 0 -20 7 -20 28 0 16 3 32 7 35 11 12
33 -14 33 -39z m130 0 c0 -17 -6 -24 -20 -24 -15 0 -20 7 -20 28 0 16 3 32 7
35 11 12 33 -14 33 -39z m120 5 c0 -19 -5 -29 -15 -29 -15 0 -22 50 -9 63 12
12 24 -4 24 -34z m-510 1 c0 -23 -4 -30 -20 -30 -16 0 -20 7 -20 30 0 23 4 30
20 30 16 0 20 -7 20 -30z m584 -76 c14 -13 16 -59 16 -343 0 -241 -3 -330 -12
-339 -17 -17 -679 -17 -696 0 -17 17 -17 669 0 686 9 9 99 12 344 12 289 0
335 -2 348 -16z m-734 -84 c0 -24 -41 -28 -59 -7 -14 18 -4 27 31 27 21 0 28
-5 28 -20z m835 0 c0 -9 -11 -16 -27 -18 -23 -3 -28 1 -28 18 0 17 5 21 28 18
16 -2 27 -9 27 -18z m-835 -125 c0 -16 -55 -22 -64 -6 -8 13 5 21 36 21 18 0
28 -5 28 -15z m840 0 c0 -10 -10 -15 -30 -15 -20 0 -30 5 -30 15 0 10 10 15
30 15 20 0 30 -5 30 -15z m-840 -130 c0 -16 -55 -22 -64 -6 -8 13 5 21 36 21
18 0 28 -5 28 -15z m840 0 c0 -10 -10 -15 -30 -15 -20 0 -30 5 -30 15 0 10 10
15 30 15 20 0 30 -5 30 -15z m-840 -130 c0 -16 -55 -22 -64 -6 -8 13 5 21 36
21 18 0 28 -5 28 -15z m840 0 c0 -10 -10 -15 -30 -15 -20 0 -30 5 -30 15 0 10
10 15 30 15 20 0 30 -5 30 -15z m-840 -130 c0 -16 -55 -22 -64 -6 -8 13 5 21
36 21 18 0 28 -5 28 -15z m840 0 c0 -10 -10 -15 -30 -15 -20 0 -30 5 -30 15 0
10 10 15 30 15 20 0 30 -5 30 -15z m-692 -157 c-2 -21 -8 -33 -18 -33 -10 0
-16 12 -18 33 -3 27 0 32 18 32 18 0 21 -5 18 -32z m130 0 c-2 -21 -8 -33 -18
-33 -10 0 -16 12 -18 33 -3 27 0 32 18 32 18 0 21 -5 18 -32z m132 10 c0 -30
-15 -52 -29 -44 -6 4 -11 20 -11 37 0 22 5 29 20 29 14 0 20 -7 20 -22z m130
-2 c0 -25 -22 -51 -33 -39 -4 3 -7 19 -7 35 0 21 5 28 20 28 14 0 20 -7 20
-24z m118 -8 c-2 -18 -7 -33 -13 -33 -5 0 -11 15 -13 33 -3 24 1 32 13 32 12
0 16 -8 13 -32z"/>
<path d="M1482 643 l3 -318 315 0 315 0 3 318 2 317 -320 0 -320 0 2 -317z
m608 -3 l0 -290 -290 0 -290 0 0 293 0 292 290 -3 290 -3 0 -289z"/>
<path d="M1550 886 c-18 -22 -5 -48 22 -44 17 2 23 10 23 28 0 29 -26 38 -45
16z"/>
<path d="M4010 1039 c-41 -10 -106 -34 -145 -53 -70 -33 -215 -139 -215 -157
0 -20 34 -7 78 30 71 60 159 109 247 138 72 24 95 27 225 27 130 0 153 -3 225
-27 90 -30 181 -82 254 -144 46 -40 61 -44 61 -17 0 19 -138 119 -210 153
-154 72 -360 92 -520 50z"/>
<path d="M315 985 c-57 -56 -14 -149 65 -144 32 3 46 -2 66 -22 l25 -26 -23
-44 c-17 -33 -23 -60 -23 -112 l0 -67 -58 -50 -58 -50 -29 22 c-23 16 -38 20
-75 16 -104 -12 -146 -125 -73 -198 36 -37 83 -46 131 -27 47 20 72 60 71 114
-1 41 2 47 58 94 l58 51 40 -35 c65 -59 161 -71 232 -29 l28 16 46 -45 c46
-46 46 -47 29 -72 -18 -29 -22 -98 -7 -138 14 -36 66 -77 108 -85 129 -24 225
100 166 216 -34 68 -121 99 -198 70 -25 -10 -32 -7 -72 33 l-44 44 21 41 c25
49 28 127 6 179 -14 34 -14 38 5 58 11 12 20 24 20 28 0 13 -33 7 -50 -8 -15
-14 -21 -13 -61 10 -55 31 -128 33 -182 6 l-37 -19 -24 31 c-18 25 -22 41 -19
74 4 35 1 46 -21 67 -34 35 -88 35 -121 1z m103 -49 c4 -33 -13 -56 -42 -56
-30 0 -46 18 -46 52 0 54 82 57 88 4z m292 -149 c140 -94 65 -311 -102 -295
-90 9 -143 68 -143 158 0 66 18 99 75 138 46 31 124 31 170 -1z m-435 -342
c41 -40 27 -104 -27 -126 -38 -15 -74 -4 -101 33 -56 76 61 161 128 93z m751
-51 c27 -18 44 -56 44 -100 0 -52 -53 -104 -106 -104 -91 0 -145 80 -108 157
33 67 108 87 170 47z"/>
<path d="M4122 919 c-80 -10 -172 -41 -237 -78 -56 -33 -135 -98 -135 -112 0
-20 35 -7 78 31 93 82 229 130 372 130 143 0 279 -48 372 -130 43 -38 78 -51
78 -31 0 19 -97 92 -165 126 -115 57 -243 80 -363 64z"/>
<path d="M854 889 c-10 -17 13 -36 27 -22 12 12 4 33 -11 33 -5 0 -12 -5 -16
-11z"/>
<path d="M4135 784 c-43 -7 -124 -34 -168 -56 -41 -20 -117 -85 -117 -99 0
-18 21 -8 81 36 156 115 384 115 537 0 58 -44 82 -54 82 -36 0 12 -77 79 -114
98 -83 43 -219 69 -301 57z"/>
<path d="M4112 635 c-81 -23 -162 -73 -162 -101 0 -22 18 -17 58 16 97 78 253
84 364 14 20 -13 39 -28 43 -34 3 -5 13 -10 21 -10 25 0 15 27 -22 55 -81 62
-207 87 -302 60z"/>
<path d="M4135 498 c-43 -16 -85 -47 -85 -64 0 -19 4 -18 57 13 72 42 137 36
215 -19 21 -15 36 -2 22 19 -29 46 -147 74 -209 51z"/>
<path d="M4155 345 c-14 -13 -25 -33 -25 -45 0 -27 43 -70 70 -70 27 0 70 43
70 70 0 27 -43 70 -70 70 -11 0 -32 -11 -45 -25z m70 -21 c18 -19 16 -33 -8
-48 -18 -11 -47 0 -54 21 -4 12 23 43 37 43 5 0 16 -7 25 -16z"/>
</g>
</svg>
